<?xml version="1.0" encoding="UTF-8"?>
<svg version="1.1" viewBox="0 0 121.29 120.38" xmlns="http://www.w3.org/2000/svg">
 <g transform="translate(-196 -372.77)">
  <path d="m233.34 448.18c-7.5825-1.3233-13.507-4.3491-19.124-9.7667-7.0879-6.8368-10.111-14.047-10.081-24.042 0.0137-4.5845 0.24943-6.0698 1.5172-9.5628 3.3727-9.2923 9.6731-16.566 18.209-21.021 3.2964-1.7205 3.3114-1.7229 10.554-1.6746 6.0547 0.0404 7.9633 0.2565 11.557 1.3084 6.1663 1.805 11.165 4.6834 15.557 8.9586 4.3336 4.2184 6.7524 7.8948 8.7432 13.289 1.2101 3.279 1.3996 4.63 1.4015 9.9944 2e-3 5.337-0.19787 6.7858-1.4314 10.379-4.4492 12.958-16.497 21.749-30.43 22.205-2.8204 0.0922-5.7324 0.0621-6.4711-0.0668z" fill="#0ff"/>
  <path d="m234.18 373.38c0.0346 0.2879-0.53111 0.62962-1.5999 1.0895-1.0688 0.45983-2.6435 1.0429-4.5941 1.9162-1.9506 0.87321-4.2816 2.0416-6.7762 3.6969s-5.1573 3.8017-7.6179 6.5848c-2.2404 2.5274-4.3209 5.6019-5.9445 9.1718s-2.7907 7.6372-3.1326 11.97c-0.28498 3.5309-0.0194 7.2685 0.87457 10.991 0.89393 3.7227 2.4161 7.4302 4.6113 10.805 1.952 3.0143 4.464 5.7961 7.4187 8.1525s6.3516 4.2871 10.021 5.5668c4.9771 1.7387 10.526 2.347 15.905 1.5131 0.0923-0.0143 0.18442-0.029 0.27645-0.0442 4.4283-0.71027 8.6631-2.4433 12.345-4.8583s6.8103-5.5112 9.1143-8.9921c2.5748-3.8522 4.1906-8.2495 4.9122-12.642s0.54875-8.7796-0.40881-12.78c-1.1454-4.8699-3.4546-9.2506-6.2786-12.835-2.824-3.5842-6.164-6.3742-9.5659-8.3485-3.696-2.1594-7.4903-3.392-10.91-4.0725s-6.4757-0.81221-8.979-0.76189c-2.5033 0.0503-4.4651 0.2779-5.8286 0.38444-1.3635 0.10653-2.137 0.0859-2.2481-0.21024-0.11112-0.29617 0.44709-0.85779 1.703-1.5585 1.2559-0.70072 3.2182-1.5368 5.9014-2.1748s6.098-1.0733 10.094-0.82732c3.9965 0.24597 8.5841 1.1782 13.293 3.3498 4.322 2.0059 8.6642 5.0485 12.43 9.2076 3.7656 4.1591 6.9537 9.4386 8.751 15.62 1.4621 5.0874 1.9361 10.672 1.2066 16.329-0.72946 5.6565-2.6632 11.383-5.9464 16.58-2.9738 4.6715-6.9766 8.7927-11.746 11.996-4.7693 3.2032-10.304 5.4872-16.231 6.464-0.12205 0.0197-0.24419 0.0389-0.36643 0.0576-7.1261 1.0869-14.309 0.2615-20.756-2.0912-4.7686-1.7424-9.0924-4.2966-12.806-7.3976-3.7134-3.101-6.816-6.748-9.2059-10.7-2.6718-4.4348-4.4107-9.1821-5.3194-13.889s-0.98772-9.3738-0.38194-13.748c0.75093-5.3654 2.5112-10.208 4.7964-14.334 2.2852-4.1258 5.0946-7.5372 8.0342-10.228 3.2363-2.9554 6.5895-5.0209 9.6545-6.4499s5.8462-2.2263 8.1304-2.6596 4.0761-0.50754 5.288-0.43092c1.2119 0.0766 1.8472 0.30014 1.8818 0.58804z" fill-rule="evenodd"/>
  <path d="m279.37 448.88c1.8031-2.0896 11.699 3.4907 22.089 12.456 10.39 8.9654 17.36 17.938 15.556 20.027s-11.699-3.4907-22.089-12.456c-10.39-8.9654-17.36-17.938-15.556-20.027z" fill-rule="evenodd"/>
  <path d="m273.07 455.24c2.0726-1.8226 10.959 4.891 19.836 14.986s14.399 19.767 12.327 21.589-10.959-4.891-19.836-14.986-14.399-19.767-12.327-21.589z" fill-rule="evenodd"/>
  <path d="m261.94 438.09c1.9157-1.9869 7.7327 0.5101 12.984 5.5736 5.2517 5.0635 7.9592 10.786 6.0435 12.772s-7.7327-0.5101-12.984-5.5736c-5.2517-5.0635-7.9592-10.786-6.0435-12.772z" fill-rule="evenodd"/>
  <path d="m315.81 478.39c2.0646 1.8316 0.95472 6.4581-2.4775 10.327-3.4322 3.8688-7.8934 5.5221-9.958 3.6904s-0.95472-6.4581 2.4775-10.327c3.4322-3.8688 7.8934-5.5221 9.958-3.6904z" fill-rule="evenodd"/>
 </g>
</svg>
