<?xml version="1.0" encoding="UTF-8" standalone="no"?>
<svg
   xmlns:dc="http://purl.org/dc/elements/1.1/"
   xmlns:cc="http://creativecommons.org/ns#"
   xmlns:rdf="http://www.w3.org/1999/02/22-rdf-syntax-ns#"
   xmlns:svg="http://www.w3.org/2000/svg"
   xmlns="http://www.w3.org/2000/svg"
   xmlns:sodipodi="http://sodipodi.sourceforge.net/DTD/sodipodi-0.dtd"
   xmlns:inkscape="http://www.inkscape.org/namespaces/inkscape"
   version="1.1"
   id="svg2"
   xml:space="preserve"
   width="7111.1069"
   height="4000"
   viewBox="0 0 7111.1069 4000"
   sodipodi:docname="abstract-6467847.ai"><metadata
     id="metadata8"><rdf:RDF><cc:Work
         rdf:about=""><dc:format>image/svg+xml</dc:format><dc:type
           rdf:resource="http://purl.org/dc/dcmitype/StillImage" /></cc:Work></rdf:RDF></metadata><defs
     id="defs6"><clipPath
       clipPathUnits="userSpaceOnUse"
       id="clipPath20"><path
         d="M 0,3000 H 5333.33 V 0 H 0 Z"
         id="path18" /></clipPath></defs><sodipodi:namedview
     pagecolor="#ffffff"
     bordercolor="#666666"
     borderopacity="1"
     objecttolerance="10"
     gridtolerance="10"
     guidetolerance="10"
     inkscape:pageopacity="0"
     inkscape:pageshadow="2"
     inkscape:window-width="640"
     inkscape:window-height="480"
     id="namedview4" /><g
     id="g10"
     inkscape:groupmode="layer"
     inkscape:label="abstract-6467847"
     transform="matrix(1.3333333,0,0,-1.3333333,0,4000)"><path
       d="M 0,0 H 5333.329 V 3000 H 0 Z"
       style="fill:#ffeadb;fill-opacity:1;fill-rule:nonzero;stroke:none"
       id="path12" /><g
       id="g14"><g
         id="g16"
         clip-path="url(#clipPath20)"><g
           id="g22"
           transform="translate(-1e-4,3000)"><path
             d="m 0,0 h 1806.473 c 289.951,-578.504 593.887,-1304.951 593.887,-1808.602 0,-407.272 -234.105,-801.289 -571.509,-1191.398 H 0 Z"
             style="fill:#637373;fill-opacity:1;fill-rule:evenodd;stroke:none"
             id="path24" /></g><g
           id="g26"
           transform="translate(4111.6592,3000)"><path
             d="m 0,0 h 1221.673 v -3000 h -2425.932 c 86.769,441.533 155.728,938.648 282.976,1549.439 C -793.182,-835.676 -425.787,-359.701 0,0"
             style="fill:#ff9a76;fill-opacity:1;fill-rule:evenodd;stroke:none"
             id="path28" /></g><g
           id="g30"
           transform="translate(4841.1084,3000)"><path
             d="m 0,0 h 492.224 v -3000 h -1533.225 c 273.576,690.955 378.425,1229.105 563.199,2018.609 C -390.168,-606.932 -207.369,-276.267 0,0"
             style="fill:#679b9b;fill-opacity:1;fill-rule:evenodd;stroke:none"
             id="path32" /></g><g
           id="g34"
           transform="translate(5333.332,710.4957)"><path
             d="M 0,0 V -710.496 H -1035.453 C -711.831,-399.396 -337.575,-167.484 0,0"
             style="fill:#637373;fill-opacity:1;fill-rule:evenodd;stroke:none"
             id="path36" /></g></g></g></g></svg>
